<mxfile host="Electron" modified="2023-07-23T07:18:38.059Z" agent="Mozilla/5.0 (Windows NT 10.0; Win64; x64) AppleWebKit/537.36 (KHTML, like Gecko) draw.io/21.5.0 Chrome/112.0.5615.204 Electron/24.5.1 Safari/537.36" etag="excwyAlGBiFj56pMeTMI" version="21.5.0" type="device">
  <diagram name="第 1 页" id="sFAJz-b7F0fLCu8hm9Uf">
    <mxGraphModel dx="4569" dy="-6027" grid="1" gridSize="10" guides="1" tooltips="1" connect="1" arrows="1" fold="1" page="1" pageScale="1" pageWidth="827" pageHeight="1169" math="0" shadow="0">
      <root>
        <mxCell id="0" />
        <mxCell id="1" parent="0" />
        <mxCell id="62QRgZ04wXwWhmIXijky-1" value="" style="rounded=1;whiteSpace=wrap;html=1;fontSize=15;" parent="1" vertex="1">
          <mxGeometry x="-246.5" y="8220" width="440" height="1110" as="geometry" />
        </mxCell>
        <mxCell id="62QRgZ04wXwWhmIXijky-2" value="" style="shape=trapezoid;perimeter=trapezoidPerimeter;whiteSpace=wrap;html=1;fixedSize=1;direction=south;" parent="1" vertex="1">
          <mxGeometry x="3.5" y="8280" width="64" height="340" as="geometry" />
        </mxCell>
        <mxCell id="62QRgZ04wXwWhmIXijky-3" value="" style="endArrow=classic;html=1;rounded=0;strokeWidth=2;" parent="1" edge="1">
          <mxGeometry width="50" height="50" relative="1" as="geometry">
            <mxPoint x="34.5" y="8670" as="sourcePoint" />
            <mxPoint x="34.789999999999964" y="8610" as="targetPoint" />
          </mxGeometry>
        </mxCell>
        <mxCell id="62QRgZ04wXwWhmIXijky-4" value="select_i" style="text;whiteSpace=wrap;html=1;fontSize=18;" parent="1" vertex="1">
          <mxGeometry x="38.5" y="8620" width="70" height="40" as="geometry" />
        </mxCell>
        <mxCell id="62QRgZ04wXwWhmIXijky-5" value="inport1_wr_i&lt;br style=&quot;font-size: 18px;&quot;&gt;inport1_rd_i&lt;br style=&quot;font-size: 18px;&quot;&gt;inport1_len_i&lt;br style=&quot;font-size: 18px;&quot;&gt;inport1_addr_i&lt;br style=&quot;font-size: 18px;&quot;&gt;inport1_write_data_i" style="text;whiteSpace=wrap;html=1;fontSize=18;fontStyle=1" parent="1" vertex="1">
          <mxGeometry x="-433.5" y="8251" width="100" height="40" as="geometry" />
        </mxCell>
        <mxCell id="62QRgZ04wXwWhmIXijky-6" value="inport0_wr_i&lt;br style=&quot;font-size: 18px;&quot;&gt;inport0_rd_i&lt;br style=&quot;font-size: 18px;&quot;&gt;inport0_len_i&lt;br style=&quot;font-size: 18px;&quot;&gt;inport0_addr_i&lt;br style=&quot;font-size: 18px;&quot;&gt;inport0_write_data_i" style="text;whiteSpace=wrap;html=1;fontSize=18;fontStyle=1" parent="1" vertex="1">
          <mxGeometry x="-433.5" y="8410" width="100" height="40" as="geometry" />
        </mxCell>
        <mxCell id="62QRgZ04wXwWhmIXijky-7" value="" style="endArrow=classic;html=1;rounded=0;strokeWidth=2;fontStyle=1" parent="1" edge="1">
          <mxGeometry width="50" height="50" relative="1" as="geometry">
            <mxPoint x="-439.75" y="8370" as="sourcePoint" />
            <mxPoint x="0.25" y="8370" as="targetPoint" />
            <Array as="points" />
          </mxGeometry>
        </mxCell>
        <mxCell id="62QRgZ04wXwWhmIXijky-8" value="" style="endArrow=classic;html=1;rounded=0;strokeWidth=2;fontStyle=1" parent="1" edge="1">
          <mxGeometry width="50" height="50" relative="1" as="geometry">
            <mxPoint x="-439.75" y="8530" as="sourcePoint" />
            <mxPoint x="0.25" y="8530" as="targetPoint" />
            <Array as="points" />
          </mxGeometry>
        </mxCell>
        <mxCell id="62QRgZ04wXwWhmIXijky-9" value="" style="endArrow=classic;html=1;rounded=0;strokeWidth=2;fontStyle=1" parent="1" edge="1">
          <mxGeometry width="50" height="50" relative="1" as="geometry">
            <mxPoint x="67.5" y="8449.29" as="sourcePoint" />
            <mxPoint x="480" y="8449" as="targetPoint" />
            <Array as="points" />
          </mxGeometry>
        </mxCell>
        <mxCell id="62QRgZ04wXwWhmIXijky-10" value="outport_ack_i&lt;br&gt;outport_error_i&lt;br&gt;outport_accept_i" style="text;whiteSpace=wrap;html=1;fontSize=18;fontStyle=1" parent="1" vertex="1">
          <mxGeometry x="-433.5" y="8665" width="103" height="40" as="geometry" />
        </mxCell>
        <mxCell id="62QRgZ04wXwWhmIXijky-11" value="" style="endArrow=classic;html=1;rounded=0;strokeWidth=2;fontStyle=1;" parent="1" edge="1">
          <mxGeometry width="50" height="50" relative="1" as="geometry">
            <mxPoint x="-438.5" y="8740" as="sourcePoint" />
            <mxPoint x="1.5" y="8740" as="targetPoint" />
            <Array as="points" />
          </mxGeometry>
        </mxCell>
        <mxCell id="62QRgZ04wXwWhmIXijky-12" value="" style="shape=trapezoid;perimeter=trapezoidPerimeter;whiteSpace=wrap;html=1;fixedSize=1;direction=south;" parent="1" vertex="1">
          <mxGeometry x="1.5" y="8680" width="64" height="230" as="geometry" />
        </mxCell>
        <mxCell id="62QRgZ04wXwWhmIXijky-13" value="" style="endArrow=classic;html=1;rounded=0;strokeWidth=2;fontStyle=1" parent="1" edge="1">
          <mxGeometry width="50" height="50" relative="1" as="geometry">
            <mxPoint x="-168.5" y="8838" as="sourcePoint" />
            <mxPoint x="1.5" y="8840" as="targetPoint" />
            <Array as="points" />
          </mxGeometry>
        </mxCell>
        <mxCell id="62QRgZ04wXwWhmIXijky-14" value="&lt;font style=&quot;font-size: 18px;&quot;&gt;&#39;b0&lt;/font&gt;" style="text;whiteSpace=wrap;html=1;fontSize=18;" parent="1" vertex="1">
          <mxGeometry x="-166.5" y="9050" width="140" as="geometry" />
        </mxCell>
        <mxCell id="62QRgZ04wXwWhmIXijky-15" value="" style="endArrow=classic;html=1;rounded=0;strokeWidth=2;fontStyle=1;" parent="1" edge="1">
          <mxGeometry width="50" height="50" relative="1" as="geometry">
            <mxPoint x="-207.5" y="8740" as="sourcePoint" />
            <mxPoint x="1.5" y="9020" as="targetPoint" />
            <Array as="points">
              <mxPoint x="-206.5" y="9020" />
            </Array>
          </mxGeometry>
        </mxCell>
        <mxCell id="62QRgZ04wXwWhmIXijky-16" value="" style="shape=trapezoid;perimeter=trapezoidPerimeter;whiteSpace=wrap;html=1;fixedSize=1;direction=south;" parent="1" vertex="1">
          <mxGeometry x="3.5" y="8950" width="64" height="230" as="geometry" />
        </mxCell>
        <mxCell id="62QRgZ04wXwWhmIXijky-17" value="" style="endArrow=classic;html=1;rounded=0;strokeWidth=2;fontStyle=1" parent="1" edge="1">
          <mxGeometry width="50" height="50" relative="1" as="geometry">
            <mxPoint x="-169.5" y="9090" as="sourcePoint" />
            <mxPoint x="0.5" y="9092" as="targetPoint" />
            <Array as="points" />
          </mxGeometry>
        </mxCell>
        <mxCell id="62QRgZ04wXwWhmIXijky-18" value="inport0_read_data_o [31:0]" style="text;whiteSpace=wrap;html=1;fontStyle=1;fontSize=18;" parent="1" vertex="1">
          <mxGeometry x="206.22000000000003" y="9207" width="251.5" height="30" as="geometry" />
        </mxCell>
        <mxCell id="62QRgZ04wXwWhmIXijky-19" value="" style="endArrow=classic;html=1;rounded=0;strokeWidth=2;fontStyle=1;" parent="1" edge="1">
          <mxGeometry width="50" height="50" relative="1" as="geometry">
            <mxPoint x="-451.12" y="9240" as="sourcePoint" />
            <mxPoint x="480" y="9239" as="targetPoint" />
            <Array as="points" />
          </mxGeometry>
        </mxCell>
        <mxCell id="62QRgZ04wXwWhmIXijky-20" value="" style="endArrow=classic;html=1;rounded=0;strokeWidth=2;fontStyle=1;" parent="1" edge="1">
          <mxGeometry width="50" height="50" relative="1" as="geometry">
            <mxPoint x="-216.5" y="9240" as="sourcePoint" />
            <mxPoint x="480" y="9279" as="targetPoint" />
            <Array as="points">
              <mxPoint x="-216.5" y="9279" />
            </Array>
          </mxGeometry>
        </mxCell>
        <mxCell id="62QRgZ04wXwWhmIXijky-21" value="&lt;font style=&quot;font-size: 18px;&quot;&gt;&lt;b&gt;outport_read_data_i [31:0]&lt;/b&gt;&lt;/font&gt;" style="text;whiteSpace=wrap;html=1;" parent="1" vertex="1">
          <mxGeometry x="-480" y="9205" width="267" height="40" as="geometry" />
        </mxCell>
        <mxCell id="62QRgZ04wXwWhmIXijky-22" value="inport1_read_data_o [31:0]" style="text;whiteSpace=wrap;html=1;fontStyle=1;fontSize=18;" parent="1" vertex="1">
          <mxGeometry x="207.22" y="9249" width="312.78" height="18" as="geometry" />
        </mxCell>
        <mxCell id="62QRgZ04wXwWhmIXijky-23" value="" style="endArrow=classic;html=1;rounded=0;strokeWidth=2;fontStyle=1" parent="1" edge="1">
          <mxGeometry width="50" height="50" relative="1" as="geometry">
            <mxPoint x="66.73000000000002" y="8795" as="sourcePoint" />
            <mxPoint x="480" y="8797" as="targetPoint" />
            <Array as="points" />
          </mxGeometry>
        </mxCell>
        <mxCell id="62QRgZ04wXwWhmIXijky-24" value="" style="endArrow=classic;html=1;rounded=0;strokeWidth=2;fontStyle=1" parent="1" edge="1">
          <mxGeometry width="50" height="50" relative="1" as="geometry">
            <mxPoint x="66.73000000000002" y="9064.17" as="sourcePoint" />
            <mxPoint x="480" y="9064" as="targetPoint" />
            <Array as="points" />
          </mxGeometry>
        </mxCell>
        <mxCell id="62QRgZ04wXwWhmIXijky-25" value="outport_wr_o&lt;br&gt;outport_rd_o&lt;br&gt;outport_len_o&lt;br&gt;outport_addr_o&lt;br&gt;outport_write_data_o" style="text;whiteSpace=wrap;html=1;fontSize=18;fontStyle=1" parent="1" vertex="1">
          <mxGeometry x="206.5" y="8333" width="100" height="30" as="geometry" />
        </mxCell>
        <mxCell id="62QRgZ04wXwWhmIXijky-26" value="&lt;font style=&quot;font-size: 18px;&quot;&gt;&#39;b0&lt;/font&gt;" style="text;whiteSpace=wrap;html=1;fontSize=18;" parent="1" vertex="1">
          <mxGeometry x="-164.5" y="8795" width="140" as="geometry" />
        </mxCell>
        <mxCell id="62QRgZ04wXwWhmIXijky-27" value="inport0_ack_o&lt;br&gt;inport0_error_o&lt;br&gt;inport0_accept_o" style="text;whiteSpace=wrap;html=1;fontSize=18;fontStyle=1" parent="1" vertex="1">
          <mxGeometry x="206" y="8720" width="103" height="40" as="geometry" />
        </mxCell>
        <mxCell id="62QRgZ04wXwWhmIXijky-28" value="" style="endArrow=classic;html=1;rounded=0;strokeWidth=2;" parent="1" edge="1">
          <mxGeometry width="50" height="50" relative="1" as="geometry">
            <mxPoint x="34.5" y="8950" as="sourcePoint" />
            <mxPoint x="35.31" y="8900" as="targetPoint" />
          </mxGeometry>
        </mxCell>
        <mxCell id="62QRgZ04wXwWhmIXijky-29" value="" style="endArrow=classic;html=1;rounded=0;strokeWidth=2;" parent="1" edge="1">
          <mxGeometry width="50" height="50" relative="1" as="geometry">
            <mxPoint x="33.01999999999998" y="9220" as="sourcePoint" />
            <mxPoint x="33.83000000000004" y="9170" as="targetPoint" />
          </mxGeometry>
        </mxCell>
        <mxCell id="62QRgZ04wXwWhmIXijky-30" value="select_i&lt;br&gt;select_q" style="text;whiteSpace=wrap;html=1;fontSize=18;" parent="1" vertex="1">
          <mxGeometry x="38.5" y="9170" width="75" height="40" as="geometry" />
        </mxCell>
        <mxCell id="62QRgZ04wXwWhmIXijky-31" value="select_i&lt;br&gt;select_q" style="text;whiteSpace=wrap;html=1;fontSize=18;" parent="1" vertex="1">
          <mxGeometry x="43" y="8900" width="75" height="40" as="geometry" />
        </mxCell>
        <mxCell id="62QRgZ04wXwWhmIXijky-32" value="inport1_ack_o&lt;br&gt;inport1_error_o&lt;br&gt;inport1_accept_o" style="text;whiteSpace=wrap;html=1;fontSize=18;fontStyle=1" parent="1" vertex="1">
          <mxGeometry x="205.22000000000003" y="8990" width="103" height="40" as="geometry" />
        </mxCell>
      </root>
    </mxGraphModel>
  </diagram>
</mxfile>
